<svg width="21" height="29" viewBox="0 0 21 29" fill="none" xmlns="http://www.w3.org/2000/svg">
<path fill-rule="evenodd" clip-rule="evenodd" d="M15.2727 0H5.72727C2.54482 1.20894 0.635727 3.02144 0 5.4375V23.5625C0 25.0046 0.603408 26.3877 1.67748 27.4074C2.75155 28.4271 4.20831 29 5.72727 29H15.2727C16.7917 29 18.2484 28.4271 19.3225 27.4074C20.3966 26.3877 21 25.0046 21 23.5625V5.4375C20.3643 3.02144 18.4552 1.20894 15.2727 0ZM1.90909 23.5625V5.67856C2.41309 4.04731 3.759 2.7695 6.10718 1.8125H14.8909C17.2391 2.7695 18.585 4.04731 19.089 5.67856V23.5625C19.089 24.5239 18.6867 25.4459 17.9707 26.1258C17.2546 26.8056 16.2835 27.1875 15.2708 27.1875H5.72536C4.71272 27.1875 3.74155 26.8056 3.0255 26.1258C2.30945 25.4459 1.90909 24.5239 1.90909 23.5625Z" fill="#FCA701"/>
<path fill-rule="evenodd" clip-rule="evenodd" d="M3.53125 13.5938C3.53125 15.5166 4.29509 17.3606 5.65473 18.7203C7.01436 20.0799 8.85843 20.8438 10.7812 20.8438C12.7041 20.8438 14.5481 20.0799 15.9078 18.7203C17.2674 17.3606 18.0312 15.5166 18.0312 13.5938C18.0312 11.6709 17.2674 9.82686 15.9078 8.46723C14.5481 7.10759 12.7041 6.34375 10.7812 6.34375C8.85843 6.34375 7.01436 7.10759 5.65473 8.46723C4.29509 9.82686 3.53125 11.6709 3.53125 13.5938ZM16.2188 13.5938C16.2188 14.3078 16.0781 15.0149 15.8048 15.6746C15.5316 16.3343 15.1311 16.9337 14.6261 17.4386C14.1212 17.9436 13.5218 18.3441 12.8621 18.6173C12.2024 18.8906 11.4953 19.0312 10.7812 19.0312C10.0672 19.0312 9.36012 18.8906 8.70041 18.6173C8.0407 18.3441 7.44127 17.9436 6.93636 17.4386C6.43144 16.9337 6.03091 16.3343 5.75765 15.6746C5.48439 15.0149 5.34375 14.3078 5.34375 13.5938C5.34375 12.1516 5.91663 10.7686 6.93636 9.74886C7.95609 8.72913 9.33914 8.15625 10.7812 8.15625C12.2234 8.15625 13.6064 8.72913 14.6261 9.74886C15.6459 10.7686 16.2188 12.1516 16.2188 13.5938Z" fill="#FCA701"/>
<path d="M12.7278 8.16528L14.515 8.46253C14.2123 10.2859 13.2952 11.9752 11.7872 13.5194C10.2828 15.0618 8.22741 16.1657 5.6446 16.8435L5.18604 15.089C7.46797 14.4909 9.22972 13.543 10.4912 12.2525C11.7509 10.9638 12.4886 9.60622 12.7278 8.16528Z" fill="#FCA701"/>
<path d="M15.0262 10.1717C15.0085 10.054 15.0141 9.93399 15.0428 9.81847C15.0714 9.70294 15.1226 9.59419 15.1932 9.49842C15.2639 9.40266 15.3528 9.32175 15.4548 9.26032C15.5567 9.1989 15.6698 9.15816 15.7875 9.14042C15.9052 9.12269 16.0252 9.12832 16.1407 9.15698C16.2563 9.18564 16.365 9.23677 16.4608 9.30746C16.5565 9.37815 16.6375 9.46701 16.6989 9.56896C16.7603 9.67092 16.801 9.78397 16.8188 9.90167C17.1106 11.841 16.8732 13.4288 16.0648 14.6287C15.1223 16.0225 13.685 16.8164 12.293 17.1825C12.1298 17.2242 11.8761 17.2822 11.4864 17.3656L10.3753 17.603L10.176 17.6465C9.79846 17.726 9.42203 17.8106 9.04678 17.9002C8.63353 18.0036 7.87772 18.2355 6.79928 18.5944C6.57118 18.6704 6.32226 18.6526 6.10727 18.545C5.89227 18.4374 5.72882 18.2489 5.65287 18.0208C5.57692 17.7927 5.59469 17.5438 5.70227 17.3288C5.80985 17.1138 5.99843 16.9503 6.22653 16.8744C7.35028 16.501 8.14053 16.2581 8.6154 16.1403C8.91628 16.0678 9.29509 15.9826 9.79353 15.8739L9.99472 15.8304L11.104 15.5947C11.4683 15.515 11.7021 15.4624 11.8326 15.428C12.8385 15.1652 13.917 14.5689 14.5604 13.6155C15.086 12.8361 15.2564 11.6997 15.0262 10.1717Z" fill="#FCA701"/>
</svg>
