<svg width="29" height="30" viewBox="0 0 29 30" fill="none" xmlns="http://www.w3.org/2000/svg">
<g clip-path="url(#clip0_2397_80)">
<path d="M27.7917 23.75C27.7917 24.413 27.5371 25.0489 27.0838 25.5178C26.6306 25.9866 26.0159 26.25 25.375 26.25H3.62501C2.98407 26.25 2.36938 25.9866 1.91617 25.5178C1.46296 25.0489 1.20834 24.413 1.20834 23.75V10C1.20834 9.33696 1.46296 8.70107 1.91617 8.23223C2.36938 7.76339 2.98407 7.5 3.62501 7.5H8.45834L10.875 3.75H18.125L20.5417 7.5H25.375C26.0159 7.5 26.6306 7.76339 27.0838 8.23223C27.5371 8.70107 27.7917 9.33696 27.7917 10V23.75Z" stroke="#B3B3B3" stroke-width="4" stroke-linecap="round" stroke-linejoin="round"/>
<path d="M14.5 21.25C17.1694 21.25 19.3333 19.0114 19.3333 16.25C19.3333 13.4886 17.1694 11.25 14.5 11.25C11.8306 11.25 9.66668 13.4886 9.66668 16.25C9.66668 19.0114 11.8306 21.25 14.5 21.25Z" stroke="#B3B3B3" stroke-width="4" stroke-linecap="round" stroke-linejoin="round"/>
</g>
<defs>
<clipPath id="clip0_2397_80">
<rect width="29" height="30" fill="white"/>
</clipPath>
</defs>
</svg>
