<svg width="18" height="30" viewBox="0 0 18 30" fill="none" xmlns="http://www.w3.org/2000/svg">
<path d="M6.3 2.2441e-06H11.7C12.3294 -0.000325003 12.9391 0.228408 13.4238 0.646668C13.9085 1.06493 14.2377 1.64643 14.3545 2.29068C14.4712 2.93492 14.3683 3.60142 14.0634 4.17498C13.7585 4.74854 13.2708 5.19312 12.6846 5.43188C12.9024 6.345 13.5432 7.03688 14.5242 8.04375L14.5422 8.0625C15.2334 8.77125 16.0524 9.61125 16.7688 10.7306C17.6654 12.1484 18.0915 13.833 17.982 15.5269C17.9946 15.6619 18 15.7987 18 15.9375V25.3125C18 26.1353 17.792 26.9436 17.3971 27.6562C17.0021 28.3688 16.434 28.9605 15.7499 29.3719C15.0659 29.7833 14.2899 29.9999 13.5 29.9999C12.7101 29.9999 11.9341 29.7833 11.25 29.3719C10.5663 29.7842 9.79004 30.0008 9 30C8.20996 30.0008 7.43375 29.7842 6.75 29.3719C6.06592 29.7833 5.28993 29.9999 4.50003 29.9999C3.71012 29.9999 2.93413 29.7833 2.25005 29.3719C1.56597 28.9605 0.997894 28.3688 0.602929 27.6562C0.207963 26.9436 2.00664e-05 26.1353 0 25.3125V15.9375C0 15.7987 0.00540041 15.6619 0.0180004 15.525C0.00627421 15.3503 0.000270316 15.1752 0 15C0 12.5063 1.1502 10.29 2.934 8.76375C3.1374 8.53875 3.3372 8.325 3.5244 8.1225L3.528 8.12063C4.4874 7.08938 5.1138 6.38625 5.3226 5.43563C4.73462 5.19873 4.24475 4.75498 3.93793 4.1813C3.63111 3.60762 3.52668 2.94018 3.64274 2.29471C3.75881 1.64923 4.08805 1.06641 4.57339 0.64729C5.05873 0.228169 5.66957 -0.00082697 6.3 2.2441e-06ZM16.2 22.5V15.9375C16.2 15.8344 16.1946 15.735 16.1856 15.6356C16.1792 15.5777 16.178 15.5194 16.182 15.4613C16.2801 14.134 15.9445 12.8111 15.2298 11.7075C15.1296 11.5519 15.0252 11.3993 14.9166 11.25H3.0924C2.16769 12.4332 1.71181 13.9396 1.818 15.4613C1.8226 15.5193 1.822 15.5777 1.8162 15.6356C1.8057 15.7359 1.80029 15.8366 1.8 15.9375V22.5H16.2ZM1.8 24.375V25.3125C1.80011 25.8422 1.94384 26.3611 2.21463 26.8095C2.48542 27.2579 2.87226 27.6175 3.33062 27.8469C3.78898 28.0763 4.30022 28.1662 4.80549 28.1063C5.31075 28.0464 5.78949 27.839 6.1866 27.5081C6.34637 27.3745 6.54512 27.3017 6.75 27.3017C6.95488 27.3017 7.15363 27.3745 7.3134 27.5081C7.776 27.8944 8.361 28.125 9 28.125C9.639 28.125 10.224 27.8944 10.6866 27.5081C10.8464 27.3745 11.0451 27.3017 11.25 27.3017C11.4549 27.3017 11.6536 27.3745 11.8134 27.5081C12.2105 27.839 12.6892 28.0464 13.1945 28.1063C13.6998 28.1662 14.211 28.0763 14.6694 27.8469C15.1277 27.6175 15.5146 27.2579 15.7854 26.8095C16.0562 26.3611 16.1999 25.8422 16.2 25.3125V24.375H1.8ZM10.8828 5.625H7.1208C6.8382 7.26 5.8356 8.33625 4.8888 9.35063L4.869 9.375H13.2588L13.1832 9.29813C12.222 8.31375 11.1816 7.245 10.8846 5.625M6.3 3.75H11.7C11.9387 3.75 12.1676 3.65123 12.3364 3.47541C12.5052 3.2996 12.6 3.06114 12.6 2.8125C12.6 2.56386 12.5052 2.3254 12.3364 2.14959C12.1676 1.97377 11.9387 1.875 11.7 1.875H6.3C6.06131 1.875 5.83239 1.97377 5.6636 2.14959C5.49482 2.3254 5.4 2.56386 5.4 2.8125C5.4 3.06114 5.49482 3.2996 5.6636 3.47541C5.83239 3.65123 6.06131 3.75 6.3 3.75Z" fill="#B1CC33"/>
</svg>
