<svg width="28" height="28" viewBox="0 0 28 28" fill="none" xmlns="http://www.w3.org/2000/svg">
<path d="M12.1613 3.52685C12.9904 2.04547 15.1172 2.04547 15.9463 3.52685L18.4587 8.02124L16.9152 7.74777C16.7593 7.7201 16.5996 7.72348 16.445 7.7577C16.2905 7.79192 16.1442 7.85632 16.0145 7.94722C15.8847 8.03812 15.7742 8.15374 15.689 8.28747C15.6039 8.42121 15.5459 8.57044 15.5183 8.72666C15.4907 8.88287 15.494 9.043 15.5282 9.19791C15.5623 9.35282 15.6266 9.49947 15.7172 9.62949C15.8079 9.75952 15.9233 9.87036 16.0567 9.9557C16.1901 10.041 16.339 10.0992 16.4949 10.1269L20.5922 10.8516C20.8768 10.9022 21.1702 10.8486 21.4187 10.7004C21.6671 10.5523 21.8542 10.3196 21.9457 10.0447L23.1508 6.421C23.252 6.11705 23.2285 5.78527 23.0856 5.49867C22.9426 5.21207 22.692 4.99411 22.3887 4.89275C22.0855 4.79139 21.7545 4.81493 21.4686 4.95818C21.1826 5.10144 20.9652 5.35268 20.8641 5.65664L20.5045 6.73892L18.049 2.346C16.3001 -0.782 11.8075 -0.782 10.0587 2.346L7.9329 6.1485C7.85056 6.28707 7.79673 6.44078 7.77461 6.60054C7.75249 6.76031 7.76251 6.9229 7.80409 7.07872C7.84567 7.23453 7.91796 7.38043 8.0167 7.50779C8.11545 7.63515 8.23864 7.7414 8.37901 7.82027C8.51938 7.89914 8.67409 7.94903 8.83401 7.967C8.99393 7.98497 9.15582 7.97065 9.31013 7.9249C9.46444 7.87914 9.60804 7.80287 9.73246 7.70058C9.85689 7.5983 9.95962 7.47207 10.0346 7.32935L12.1613 3.52685ZM23.7765 12.5929C23.6158 12.3224 23.356 12.1255 23.0525 12.0442C22.7491 11.9628 22.4259 12.0034 22.1519 12.1574C21.8779 12.3113 21.6747 12.5665 21.5856 12.8684C21.4965 13.1703 21.5285 13.4952 21.6748 13.7738L24.8592 19.4712C25.669 20.9207 24.624 22.7084 22.9667 22.7084H16.867L17.6305 21.7904C17.8322 21.544 17.9286 21.2278 17.8986 20.9105C17.8686 20.5932 17.7148 20.3007 17.4706 20.0966C17.2264 19.8925 16.9117 19.7934 16.5949 19.8209C16.2782 19.8484 15.9851 20.0002 15.7795 20.2433L13.3693 23.1423C13.189 23.3594 13.0902 23.6329 13.0902 23.9154C13.0902 24.1979 13.189 24.4714 13.3693 24.6884L15.7795 27.5874C15.9867 27.8248 16.2782 27.9715 16.5918 27.9963C16.9055 28.021 17.2163 27.9219 17.458 27.72C17.6997 27.5182 17.853 27.2296 17.8853 26.9159C17.9175 26.6022 17.8261 26.2883 17.6305 26.0413L16.8689 25.1243H22.9667C26.4663 25.1243 28.6721 21.3507 26.9618 18.2904L23.7765 12.5929ZM9.95457 22.7084H5.13901C3.4808 22.7084 2.43671 20.9207 3.24653 19.4712L6.66707 13.3544L7.44701 14.8213C7.59912 15.1007 7.85513 15.3087 8.15939 15.3999C8.46364 15.4912 8.79154 15.4584 9.07179 15.3086C9.35204 15.1589 9.56199 14.9043 9.65599 14.6003C9.74998 14.2962 9.72043 13.9672 9.57376 13.6849L7.64561 10.0612C7.52694 9.83805 7.34142 9.6579 7.11519 9.54608C6.88896 9.43426 6.63342 9.39641 6.3846 9.43787L2.04626 10.1626C1.88878 10.1871 1.7377 10.2426 1.60178 10.326C1.46586 10.4094 1.34779 10.519 1.25441 10.6484C1.16103 10.7779 1.09418 10.9246 1.05775 11.0801C1.02131 11.2356 1.01601 11.3968 1.04215 11.5544C1.06828 11.7119 1.12534 11.8627 1.21001 11.9981C1.29469 12.1334 1.4053 12.2505 1.53545 12.3427C1.66559 12.4349 1.81269 12.5003 1.96821 12.5351C2.12374 12.5699 2.28462 12.5735 2.44153 12.5456L4.55285 12.1929L1.14388 18.2904C-0.56639 21.3498 1.63942 25.1243 5.13901 25.1243H9.95457C10.2742 25.1243 10.5807 24.997 10.8067 24.7705C11.0327 24.5439 11.1597 24.2367 11.1597 23.9163C11.1597 23.596 11.0327 23.2888 10.8067 23.0622C10.5807 22.8357 10.2742 22.7084 9.95457 22.7084Z" fill="#ADADAD"/>
</svg>
