<svg width="25" height="29" viewBox="0 0 25 29" fill="none" xmlns="http://www.w3.org/2000/svg">
<path d="M12.784 28.2099C12.6524 28.2106 12.5219 28.1854 12.4001 28.1357C12.2783 28.0859 12.1675 28.0126 12.074 27.9199L4.46401 20.2999C3.32575 19.2176 2.4156 17.9185 1.78721 16.4791C1.15881 15.0396 0.824872 13.4889 0.805066 11.9184C0.785261 10.3479 1.07999 8.78931 1.67189 7.33447C2.26378 5.87963 3.14087 4.55796 4.25148 3.44735C5.36209 2.33674 6.68376 1.45965 8.1386 0.867755C9.59344 0.275858 11.152 -0.0188699 12.7226 0.000935903C14.2931 0.0207417 15.8437 0.354681 17.2832 0.983077C18.7226 1.61147 20.0218 2.52162 21.104 3.65988C22.1974 4.75206 23.0647 6.04903 23.6565 7.47663C24.2483 8.90424 24.5529 10.4345 24.5529 11.9799C24.5529 13.5253 24.2483 15.0555 23.6565 16.4831C23.0647 17.9107 22.1974 19.2077 21.104 20.2999L13.494 27.9199C13.4006 28.0126 13.2898 28.0859 13.1679 28.1357C13.0461 28.1854 12.9156 28.2106 12.784 28.2099ZM12.784 2.20988C10.8512 2.20926 8.96169 2.78193 7.35445 3.85542C5.74721 4.92892 4.49448 6.45502 3.75475 8.24064C3.01502 10.0263 2.82154 11.9912 3.19878 13.8868C3.57601 15.7824 4.50702 17.5235 5.87401 18.8899L12.784 25.7999L19.694 18.8899C21.061 17.5235 21.992 15.7824 22.3692 13.8868C22.7465 11.9912 22.553 10.0263 21.8133 8.24064C21.0735 6.45502 19.8208 4.92892 18.2136 3.85542C16.6063 2.78193 14.7168 2.20926 12.784 2.20988Z" fill="#ADADAD"/>
<path d="M12.784 16.2099C11.7951 16.2099 10.8284 15.9166 10.0062 15.3672C9.18392 14.8178 8.54305 14.0369 8.16462 13.1233C7.78618 12.2097 7.68716 11.2043 7.88009 10.2344C8.07301 9.26452 8.54922 8.3736 9.24848 7.67434C9.94774 6.97508 10.8387 6.49887 11.8086 6.30595C12.7785 6.11302 13.7838 6.21204 14.6974 6.59047C15.6111 6.96891 16.392 7.60978 16.9414 8.43202C17.4908 9.25427 17.784 10.221 17.784 11.2099C17.784 12.536 17.2572 13.8077 16.3195 14.7454C15.3819 15.6831 14.1101 16.2099 12.784 16.2099ZM12.784 8.20987C12.1907 8.20987 11.6107 8.38582 11.1173 8.71546C10.624 9.04511 10.2394 9.51364 10.0124 10.0618C9.78531 10.61 9.7259 11.2132 9.84166 11.7951C9.95741 12.3771 10.2431 12.9116 10.6627 13.3312C11.0823 13.7508 11.6168 14.0365 12.1987 14.1522C12.7807 14.268 13.3839 14.2086 13.9321 13.9815C14.4802 13.7544 14.9488 13.3699 15.2784 12.8766C15.6081 12.3832 15.784 11.8032 15.784 11.2099C15.784 10.4142 15.4679 9.65116 14.9053 9.08855C14.3427 8.52594 13.5797 8.20987 12.784 8.20987Z" fill="#ADADAD"/>
</svg>
