<svg width="32" height="31" viewBox="0 0 32 31" fill="none" xmlns="http://www.w3.org/2000/svg">
<path d="M26.9357 15.09C26.6037 15.09 26.2957 15.058 26.0117 14.994C25.7317 14.93 25.5077 14.84 25.3397 14.724C25.2917 14.688 25.2677 14.648 25.2677 14.604C25.2677 14.568 25.2857 14.518 25.3217 14.454L25.6217 13.938C25.6537 13.882 25.6917 13.854 25.7357 13.854C25.7637 13.854 25.8097 13.87 25.8737 13.902C25.9777 13.954 26.1037 13.998 26.2517 14.034C26.4037 14.066 26.5537 14.082 26.7017 14.082C26.9017 14.082 27.0497 14.052 27.1457 13.992C27.2457 13.932 27.2957 13.84 27.2957 13.716C27.2957 13.524 27.1657 13.428 26.9057 13.428H26.4437C26.3117 13.428 26.2177 13.4 26.1617 13.344C26.1097 13.288 26.0837 13.202 26.0837 13.086V12.762C26.0837 12.646 26.1097 12.56 26.1617 12.504C26.2177 12.448 26.3117 12.42 26.4437 12.42H26.8097C26.9417 12.42 27.0377 12.396 27.0977 12.348C27.1577 12.3 27.1877 12.226 27.1877 12.126C27.1877 11.934 27.0217 11.838 26.6897 11.838C26.4217 11.838 26.1677 11.898 25.9277 12.018C25.8637 12.05 25.8177 12.066 25.7897 12.066C25.7457 12.066 25.7077 12.038 25.6757 11.982L25.3757 11.466C25.3397 11.402 25.3217 11.352 25.3217 11.316C25.3217 11.272 25.3457 11.232 25.3937 11.196C25.5657 11.08 25.7797 10.99 26.0357 10.926C26.2917 10.862 26.5837 10.83 26.9117 10.83C27.2597 10.83 27.5617 10.882 27.8177 10.986C28.0777 11.086 28.2757 11.23 28.4117 11.418C28.5517 11.606 28.6217 11.828 28.6217 12.084C28.6217 12.436 28.4997 12.708 28.2557 12.9C28.5717 13.084 28.7297 13.376 28.7297 13.776C28.7297 14.18 28.5757 14.5 28.2677 14.736C27.9597 14.972 27.5157 15.09 26.9357 15.09Z" fill="#979797"/>
<path d="M3.67977 12C3.47977 12 3.37977 11.896 3.37977 11.688V11.334C3.37977 11.098 3.45977 10.876 3.61977 10.668C3.77977 10.46 4.05977 10.216 4.45977 9.936C4.59977 9.84 4.68577 9.782 4.71777 9.762C4.86177 9.666 4.96177 9.594 5.01777 9.546C5.07377 9.498 5.11577 9.446 5.14377 9.39C5.17177 9.334 5.18577 9.262 5.18577 9.174C5.18577 9.074 5.14777 8.994 5.07177 8.934C4.99977 8.87 4.88777 8.838 4.73577 8.838C4.47977 8.838 4.21977 8.904 3.95577 9.036C3.89177 9.068 3.84577 9.084 3.81777 9.084C3.77377 9.084 3.73577 9.056 3.70377 9L3.40377 8.484C3.36777 8.42 3.34977 8.37 3.34977 8.334C3.34977 8.29 3.37377 8.25 3.42177 8.214C3.59377 8.098 3.81577 8.006 4.08777 7.938C4.35977 7.866 4.65777 7.83 4.98177 7.83C5.48577 7.83 5.88377 7.936 6.17577 8.148C6.47177 8.356 6.61977 8.652 6.61977 9.036C6.61977 9.332 6.53777 9.584 6.37377 9.792C6.20977 9.996 5.94177 10.218 5.56977 10.458C5.17377 10.714 4.93577 10.886 4.85577 10.974H6.31977C6.44777 10.974 6.53377 11.002 6.57777 11.058C6.62577 11.11 6.64977 11.196 6.64977 11.316V11.658C6.64977 11.778 6.62577 11.866 6.57777 11.922C6.53377 11.974 6.44777 12 6.31977 12H3.67977Z" fill="#979797"/>
<path d="M15.0533 6C14.9253 6 14.8373 5.974 14.7893 5.922C14.7453 5.866 14.7233 5.778 14.7233 5.658V5.322C14.7233 5.202 14.7453 5.116 14.7893 5.064C14.8373 5.008 14.9253 4.98 15.0533 4.98H15.4313V3.414L15.1853 3.57C15.1653 3.586 15.1413 3.594 15.1133 3.594C15.0773 3.594 15.0473 3.576 15.0233 3.54L14.5673 2.844C14.5513 2.824 14.5433 2.802 14.5433 2.778C14.5433 2.738 14.5653 2.706 14.6093 2.682L15.7433 1.998C15.7913 1.97 15.8373 1.95 15.8813 1.938C15.9253 1.926 15.9893 1.92 16.0733 1.92H16.5113C16.6433 1.92 16.7353 1.948 16.7873 2.004C16.8433 2.06 16.8713 2.146 16.8713 2.262V4.98H17.2553C17.3833 4.98 17.4693 5.008 17.5133 5.064C17.5613 5.116 17.5853 5.202 17.5853 5.322V5.658C17.5853 5.778 17.5613 5.866 17.5133 5.922C17.4693 5.974 17.3833 6 17.2553 6H15.0533Z" fill="#979797"/>
<rect x="21" y="18" width="10" height="12" rx="1" stroke="#979797" stroke-width="2"/>
<rect x="11" y="9" width="10" height="21" rx="1" stroke="#979797" stroke-width="2"/>
<rect x="1" y="15" width="10" height="15" rx="1" stroke="#979797" stroke-width="2"/>
</svg>
